<?xml version="1.0" encoding="utf-8"?>
<!-- Generator: Adobe Illustrator 27.3.1, SVG Export Plug-In . SVG Version: 6.00 Build 0)  -->
<svg version="1.1" id="Layer_1" xmlns="http://www.w3.org/2000/svg" xmlns:xlink="http://www.w3.org/1999/xlink" x="0px" y="0px"
	 viewBox="0 0 216 76.3" style="enable-background:new 0 0 216 76.3;" xml:space="preserve">
<style type="text/css">
	.st0{fill:#FFFFFF;}
</style>
<path class="st0" d="M173,47.4c0-1.3,1-2.3,2.3-2.3c1.3,0,2.3,1,2.3,2.3c0,1.3-1,2.3-2.3,2.3C174,49.7,173,48.6,173,47.4
	C173,47.4,173,47.4,173,47.4 M177.2,47.4c0-1.1-0.9-1.9-1.9-1.9c-1.1,0-1.9,0.9-1.9,1.9s0.9,1.9,1.9,1.9c0,0,0,0,0,0
	c1,0,1.9-0.8,1.9-1.8C177.2,47.5,177.2,47.4,177.2,47.4 M174.8,48.7h-0.3V46h1.1c0.7,0,0.9,0.2,0.9,0.7s-0.4,0.7-0.8,0.7l0.8,1.2
	H176l-0.7-1.2h-0.6L174.8,48.7z M175.2,47.2c0.4,0,0.9,0.1,0.9-0.4s-0.3-0.4-0.6-0.4h-0.7v0.8H175.2z"/>
<path class="st0" d="M136.2,33.3c-1.6-1.3-3.7-2-5.8-2c-2.2,0.1-4.3,1-5.8,2.7c-1.7,1.9-2.6,4.4-2.6,6.9c0,2.5,0.9,5,2.7,6.8
	c1.7,1.7,3.9,2.6,6.2,2.6c3.8,0.1,7-2.7,7.6-6.5v-0.2h-1.4v0.1c-0.4,3-2.9,5.2-5.8,5.2c-2.7,0-4.2-1.8-4.2-5v-4.3h11.8v-0.1
	C138.9,37.2,138,34.9,136.2,33.3 M133.8,38.4H127v-1.9c-0.1-1.1,0.3-2.1,1-3c0.6-0.6,1.5-0.9,2.3-0.9c2.2,0,3.4,1.4,3.4,3.9
	L133.8,38.4z"/>
<path class="st0" d="M99.4,46.2h-1.3v0.1c-0.1,1.2-1.1,2.2-2.4,2.2c-1.3,0-2-0.9-2-2.8V33.1H98v-1.2h-4.3v-5.5h-0.2
	c-1,0.1-3.1,0.3-4.2,0.3h-0.1v5.2h-2.9v1.2h2.9v11c0,4.1,1.7,6.1,5.2,6.1c2.4,0.2,4.6-1.5,4.9-3.9L99.4,46.2z"/>
<path class="st0" d="M83.6,48.5V37.3c0.1-1.6-0.5-3.1-1.6-4.3c-1.2-1.1-2.7-1.7-4.3-1.7c-2.2-0.1-4.4,1-5.7,2.8V32v-0.1h-7.1v1.2
	h2.8v15.4h-5L52.5,19.3v-0.1h-1.3v0.1l-10,29.2h-2.8v1.2h8.3v-1.2h-3.8l2.8-8.3h8.9l2.8,8.3h-3.9v1.2h21.2v-1.2H72V40
	c0-5.1,2.7-7,4.6-7s2.7,1.2,2.7,3.4v12.1h-2.6v1.2h9.8v-1.2H83.6z M50,27l4.2,11.9h-8L50,27z"/>
<path class="st0" d="M118.7,48.5V37.1c0-2.7-1.6-5.8-6.2-5.8c-2.3-0.1-4.6,0.9-6.1,2.6V19.3h-7.1v1.3h2.7v28h-2.9v1.2h10v-1.3h-2.7
	v-8.7c0-3,1-4.7,1.9-5.5c0.8-0.8,1.9-1.3,3-1.3c2.4,0,3,2,3,3.7v11.8h-2.7v1.2h10v-1.2H118.7L118.7,48.5z"/>
<path class="st0" d="M171.7,48.5H169V36.4c0-3.1-2.1-5.1-5.6-5.1c-2.3-0.1-4.5,0.9-5.9,2.7c-0.9-1.8-2.6-2.7-5.1-2.7
	c-2.2,0-4.3,0.8-5.8,2.4V32v-0.1h-7.2v1.2h2.9v15.4h-2.9v1.2h9.8v-1.2h-2.6V40c0.1-2.5,0.2-4.1,1.1-5.3c0.7-1,1.9-1.7,3.2-1.7
	c0.9,0,1.6,0.5,2,1.2c0.3,1,0.5,2.1,0.4,3.1v11.2h-2.6v1.2h9.6v-1.2h-2.5V40c0.1-2.5,0.2-4.1,1.1-5.3c0.7-1,1.9-1.7,3.2-1.7
	c0.9,0,1.7,0.5,2.1,1.2c0.3,1,0.5,2.1,0.4,3.1v11.2H162v1.2h9.9v-1.2H171.7z"/>
<polygon class="st0" points="38.5,54.7 38.5,57.1 170.9,57.1 171.7,54.7 "/>
</svg>
