<?xml version="1.0" encoding="utf-8"?>
<!-- Generator: Adobe Illustrator 27.3.1, SVG Export Plug-In . SVG Version: 6.00 Build 0)  -->
<svg version="1.1" id="Layer_1" xmlns="http://www.w3.org/2000/svg" xmlns:xlink="http://www.w3.org/1999/xlink" x="0px" y="0px"
	 viewBox="0 0 216 76.3" style="enable-background:new 0 0 216 76.3;" xml:space="preserve">
<style type="text/css">
	.st0{fill:#FFFFFF;}
</style>
<path class="st0" d="M85.3,49.7c0-0.2,0.1-0.3,0.2-0.3c0,0,0.1,0,0.1,0H86c0.2,0,0.3,0.1,0.3,0.3c0,0,0,0,0,0.1v2.4
	c0,0.1,0,0.3,0,0.4l0,0c0.4-0.7,1.1-1.2,1.9-1.2c1.2,0,1.8,0.7,1.8,2v3c0,0.2-0.1,0.3-0.3,0.3h-0.3c-0.2,0-0.3-0.1-0.3-0.2
	c0,0,0-0.1,0-0.1v-2.8c0-0.7-0.2-1.3-1-1.3c-1,0-1.8,0.9-1.8,1.8c0,0.1,0,0.1,0,0.2v2.2c0,0.2-0.1,0.3-0.2,0.3c0,0-0.1,0-0.1,0h-0.3
	c-0.2,0-0.3-0.1-0.3-0.3L85.3,49.7L85.3,49.7z"/>
<path class="st0" d="M95.4,53.5c0.1-0.7-0.4-1.3-1.1-1.4c0,0-0.1,0-0.1,0c-0.8,0-1.5,0.6-1.5,1.4H95.4z M94.1,51.3
	c1.2,0,2.2,0.9,2.3,2.2c0,0.1,0,0.2,0,0.3c0,0.2-0.1,0.3-0.3,0.4c0,0,0,0,0,0h-3.5c0,1,0.7,1.8,1.7,1.8c0,0,0.1,0,0.1,0
	c0.5,0,0.9-0.1,1.3-0.4c0.2-0.1,0.4-0.1,0.5,0.1c0,0,0,0,0,0l0.1,0.2c0.1,0.1,0.1,0.3-0.1,0.4c0,0,0,0,0,0c-0.5,0.4-1.1,0.6-1.8,0.5
	c-1.5,0.1-2.7-1.1-2.8-2.5c0-0.1,0-0.1,0-0.2c-0.1-1.4,0.9-2.6,2.2-2.8C93.9,51.4,94,51.4,94.1,51.3"/>
<path class="st0" d="M99.4,56c0.8-0.1,1.5-0.8,1.4-1.7v-0.2h-0.3c-0.7,0-2.1,0.1-2.1,1C98.4,55.6,98.9,56,99.4,56
	C99.4,56,99.4,56,99.4,56 M100.6,53.4h0.3v-0.2c0.1-0.5-0.3-1.1-0.8-1.1c-0.1,0-0.2,0-0.3,0c-0.4,0-0.8,0.1-1.2,0.3
	c-0.2,0.1-0.4,0.1-0.5-0.1c0,0,0,0,0,0L98,52.2c-0.1-0.2-0.1-0.4,0.1-0.5c0,0,0,0,0,0c0.5-0.3,1.1-0.4,1.7-0.5
	c1-0.1,1.9,0.6,2.1,1.6c0,0.1,0,0.3,0,0.4v3c0,0.2-0.1,0.3-0.3,0.3c0,0-0.1,0-0.1,0h-0.3c-0.2,0-0.3-0.1-0.3-0.3c0,0,0,0,0-0.1v-0.3
	c0-0.1,0-0.2,0-0.3l0,0c-0.3,0.7-1,1.1-1.7,1.1c-0.9,0.1-1.7-0.6-1.8-1.5c0,0,0-0.1,0-0.1C97.5,53.5,99.5,53.4,100.6,53.4"/>
<path class="st0" d="M103.6,49.7c0-0.2,0.1-0.3,0.2-0.3c0,0,0.1,0,0.1,0h0.3c0.2,0,0.3,0.1,0.3,0.3c0,0,0,0,0,0.1v5.4
	c0,0.6,0.3,0.7,0.5,0.7c0.1,0,0.3,0.1,0.3,0.3c0,0,0,0,0,0v0.2c0,0.2-0.1,0.3-0.3,0.4c0,0-0.1,0-0.1,0c-0.6,0-1.4-0.2-1.4-1.5
	L103.6,49.7L103.6,49.7z"/>
<path class="st0" d="M106.8,52.3h-0.4c-0.2,0-0.3-0.1-0.3-0.3c0,0,0,0,0-0.1v-0.2c0-0.2,0.1-0.3,0.3-0.3c0,0,0,0,0.1,0h0.4v-1.2
	c0-0.2,0.1-0.3,0.3-0.3h0.3c0.2,0,0.3,0.1,0.3,0.2c0,0,0,0.1,0,0.1v1.2h0.9c0.2,0,0.3,0.1,0.3,0.2c0,0,0,0.1,0,0.1V52
	c0,0.2-0.1,0.3-0.3,0.3c0,0,0,0-0.1,0h-0.9v2.3c0,1,0.6,1.1,1,1.2s0.4,0.1,0.4,0.3v0.2c0,0.2-0.2,0.3-0.4,0.3c-1,0.1-1.9-0.6-2-1.6
	c0-0.1,0-0.2,0-0.3L106.8,52.3L106.8,52.3z"/>
<path class="st0" d="M110.4,49.7c0-0.2,0.1-0.3,0.3-0.3h0.3c0.2,0,0.3,0.1,0.3,0.3c0,0,0,0,0,0.1v2.4c0,0.2,0,0.4,0,0.4l0,0
	c0.4-0.7,1.2-1.2,2-1.2c1.2,0,1.8,0.7,1.8,2v3c0,0.2-0.1,0.3-0.2,0.3c0,0-0.1,0-0.1,0h-0.3c-0.2,0-0.3-0.1-0.3-0.2c0,0,0-0.1,0-0.1
	v-2.8c0-0.7-0.2-1.3-1-1.3c-1,0-1.8,0.8-1.8,1.8c0,0.1,0,0.1,0,0.2v2.2c0,0.2-0.1,0.3-0.2,0.3c0,0-0.1,0-0.1,0h-0.3
	c-0.2,0-0.3-0.1-0.3-0.2c0,0,0-0.1,0-0.1L110.4,49.7L110.4,49.7z"/>
<path class="st0" d="M122.4,56c1,0,1.8-0.8,1.8-1.8c0,0,0,0,0-0.1c0-1-0.7-1.8-1.7-1.9c0,0,0,0-0.1,0c-1,0.1-1.8,1-1.7,2
	C120.7,55.2,121.5,55.9,122.4,56 M122.4,51.4c1.5,0,2.7,1.3,2.7,2.8s-1.3,2.7-2.8,2.7c-1.5,0-2.7-1.3-2.7-2.8
	C119.6,52.6,120.8,51.4,122.4,51.4C122.3,51.4,122.4,51.4,122.4,51.4"/>
<path class="st0" d="M129.2,56c0.8,0,1.5-0.7,1.5-1.9s-0.6-1.9-1.5-1.9s-1.5,0.5-1.5,1.9c-0.1,0.9,0.5,1.7,1.4,1.8
	C129.1,56,129.2,56,129.2,56 M126.7,51.8c0-0.2,0.1-0.3,0.3-0.3h0.2c0.2,0,0.3,0.1,0.3,0.3v0.3c0,0.1,0,0.2,0,0.3l0,0
	c0.3-0.6,1-1,1.8-1c1.4,0,2.3,1.1,2.3,2.8c0.2,1.3-0.8,2.6-2.1,2.7c-0.1,0-0.2,0-0.2,0c-0.7,0-1.3-0.3-1.6-0.9l0,0
	c0,0.1,0,0.3,0,0.5v2.1c0,0.2-0.1,0.3-0.3,0.3h-0.3c-0.2,0-0.3-0.1-0.3-0.2c0,0,0-0.1,0-0.1L126.7,51.8z"/>
<path class="st0" d="M133.4,52.3H133c-0.2,0-0.3-0.1-0.3-0.3c0,0,0,0,0-0.1v-0.2c0-0.2,0.1-0.3,0.3-0.3c0,0,0,0,0.1,0h0.4v-1.2
	c0-0.2,0.1-0.3,0.2-0.3c0,0,0.1,0,0.1,0h0.3c0.2,0,0.3,0.1,0.3,0.3v1.2h0.9c0.2,0,0.3,0.1,0.3,0.3V52c0,0.2-0.1,0.3-0.3,0.3
	c0,0,0,0-0.1,0h-0.9v2.3c0,1,0.6,1.1,1,1.2s0.4,0.1,0.4,0.3v0.2c0,0.2-0.1,0.3-0.4,0.3c-1,0.1-1.9-0.6-2-1.6c0-0.1,0-0.2,0-0.3
	L133.4,52.3L133.4,52.3z"/>
<path class="st0" d="M137,51.8c0-0.2,0.1-0.3,0.3-0.3h0.3c0.2,0,0.3,0.1,0.3,0.3v4.5c0,0.2-0.1,0.3-0.3,0.3h-0.3
	c-0.2,0-0.3-0.1-0.3-0.3c0,0,0,0,0-0.1V51.8z M137,50.1v-0.3c0-0.2,0.1-0.3,0.2-0.3c0,0,0.1,0,0.1,0h0.4c0.2,0,0.3,0.1,0.3,0.3
	c0,0,0,0,0,0.1v0.3c0,0.2-0.1,0.3-0.3,0.3c0,0,0,0-0.1,0h-0.4C137.1,50.4,137,50.3,137,50.1"/>
<path class="st0" d="M142.3,56c1,0,1.8-0.8,1.8-1.8c0,0,0,0,0-0.1c0-1-0.7-1.8-1.7-1.9c0,0,0,0-0.1,0c-1,0.1-1.8,1-1.7,2
	C140.6,55.2,141.4,55.9,142.3,56 M142.3,51.4c1.5,0,2.7,1.3,2.7,2.8c0,1.5-1.3,2.7-2.8,2.7c-1.5,0-2.7-1.3-2.7-2.8
	C139.5,52.6,140.7,51.4,142.3,51.4C142.2,51.4,142.3,51.4,142.3,51.4"/>
<path class="st0" d="M146.6,51.8c0-0.2,0.1-0.3,0.3-0.3h0.3c0.2,0,0.3,0.1,0.3,0.3v0.5c0,0.1,0,0.2,0,0.3l0,0c0.4-0.8,1.1-1.3,2-1.2
	c1.2,0,1.8,0.7,1.8,2v3c0,0.2-0.1,0.3-0.3,0.3h-0.3c-0.2,0-0.3-0.1-0.3-0.3c0,0,0,0,0-0.1v-2.8c0-0.7-0.1-1.3-1-1.3
	c-1,0-1.8,0.9-1.7,1.9c0,0,0,0.1,0,0.1v2.2c0,0.2-0.1,0.3-0.3,0.3H147c-0.2,0-0.3-0.1-0.3-0.3c0,0,0,0,0-0.1L146.6,51.8L146.6,51.8z
	"/>
<path class="st0" d="M152.9,55.8l0.1-0.1c0.1-0.2,0.3-0.2,0.5-0.1c0.4,0.3,0.8,0.4,1.3,0.4c0.5,0,0.9-0.2,0.9-0.7
	c0-1-2.7-0.7-2.7-2.5c0-1,0.9-1.5,1.9-1.5c0.5,0,1,0.1,1.5,0.4c0.2,0.1,0.2,0.3,0.1,0.5l-0.1,0.2c-0.1,0.2-0.3,0.2-0.4,0.1
	c-0.3-0.2-0.7-0.3-1.1-0.3c-0.5,0-0.9,0.2-0.9,0.7c0,1,2.7,0.7,2.7,2.5c0,0.9-0.8,1.5-1.9,1.5c-0.6,0-1.3-0.2-1.8-0.6
	C152.8,56.2,152.7,56,152.9,55.8C152.9,55.8,152.9,55.8,152.9,55.8"/>
<path class="st0" d="M76.9,39.2c0-12-9.7-21.7-21.6-21.7c-12,0-21.7,9.7-21.7,21.6c0,6,2.5,11.7,6.8,15.8c1.4,1.1,3.1,1.7,4.8,1.7
	c1.2,0,2.4-0.3,3.5-0.9l14.4-8.6l-1-5.5l-15.1,9c-1.8,0.9-3.9,0.4-5.1-1.2c-5.7-7.4-4.4-18,3-23.7s18-4.4,23.7,3s4.4,18-3,23.7
	c-0.4,0.3-0.9,0.7-1.4,1l0.9,5C72.4,54.7,76.9,47.3,76.9,39.2 M63.9,32.8L63.9,32.8l-8.8-6.9l-8.7,6.9l0.1,0l-0.1,0
	c0,0,1.1,0.2,3.1,0.3v2.3c-0.7,0.1-1.3,0.3-2,0.5l0.5,0.8h1.1l-1.6,8.1l13.4-8.1h1.4l0.5-0.8h0.1c-0.7-0.2-1.4-0.4-2.1-0.5v-2.3
	C62.8,32.9,63.9,32.8,63.9,32.8 M53.8,31.6c0.5,0,0.9,0,1.4,0s0.9,0,1.4,0v3.3c-0.4,0-0.8,0-1.3,0s-1,0-1.4,0V31.6z M53.1,34.9
	c-0.9,0-1.8,0.1-2.7,0.3V32c0.9-0.1,1.8-0.3,2.7-0.4V34.9z M59.9,35.2c-0.7-0.1-1.7-0.2-2.7-0.2v-3.3c0.9,0.1,1.8,0.2,2.7,0.4V35.2z
	"/>
<path class="st0" d="M93.3,27.4c-2.1,0-4.2,1-5.5,2.6v-9.7c0-0.2-0.1-0.3-0.2-0.4c-0.1-0.1-0.3-0.1-0.4,0L85,21.4
	c-0.1,0.1-0.2,0.2-0.2,0.3v21.7c0,0.2,0.2,0.4,0.4,0.4h2.3c0.2,0,0.4-0.2,0.4-0.4v-1.7c1.4,1.6,3.4,2.5,5.5,2.5
	c3.7,0,7.7-2.9,7.7-8.4S97.1,27.4,93.3,27.4 M98,35.8c0,3.2-2,5.5-5,5.5c-2.9-0.1-5.2-2.5-5.1-5.5c0,0,0-0.1,0-0.1
	c-0.1-2.9,2.2-5.4,5.1-5.5C95.9,30.2,98,32.6,98,35.8"/>
<path class="st0" d="M110.3,27.4c-4.4,0-7.8,3.6-7.8,8.4c-0.2,4.5,3.2,8.2,7.7,8.4c0.1,0,0.2,0,0.4,0c2.6,0.1,5-1,6.6-3
	c0.2-0.2,0.2-0.4,0-0.6l-1.4-1.3c-0.2-0.2-0.4-0.2-0.6,0c0,0,0,0,0,0c-1.1,1.3-2.8,2-4.5,2c-2.5,0-4.6-1.8-4.9-4.3h11.7
	c0.2,0,0.4-0.2,0.4-0.4c0-0.4,0-0.6,0-0.8C117.9,30.8,114.8,27.3,110.3,27.4 M105.7,34.4c0.5-2.6,2.3-4.3,4.5-4.3
	c2.8,0,4.1,2.2,4.4,4.3H105.7z"/>
<path class="st0" d="M126.3,27.5c-2,0-4,0.5-5.8,1.3c-0.2,0.1-0.3,0.3-0.2,0.5l0.7,1.9c0.1,0.2,0.3,0.3,0.6,0.2c0,0,0,0,0,0
	c1.4-0.7,2.9-1,4.5-1c1.9,0,4.1,0.6,4.1,3.7c-1.4-0.4-2.8-0.5-4.3-0.5c-4.3,0-7,2.1-7,5.5s3.1,5.2,6.1,5.2c1.9,0,3.7-0.7,5.1-2v1.2
	c0,0.2,0.2,0.4,0.4,0.4h2.3c0.2,0,0.4-0.2,0.4-0.4v-9.3c0.1-1.8-0.5-3.5-1.7-4.8C130.1,28,128.2,27.3,126.3,27.5 M130.2,36.7v1.1
	c0,2.1-2,3.7-4.7,3.7c-1.7,0-3.4-0.8-3.4-2.7c0-1.7,1.6-2.7,4.1-2.7C127.5,36.1,128.8,36.3,130.2,36.7"/>
<path class="st0" d="M148.2,39.2c-0.1-0.1-0.2-0.1-0.3-0.1c-0.1,0-0.2,0-0.3,0.1c-1.1,1.3-2.7,2.1-4.4,2.2c-3-0.1-5.3-2.5-5.2-5.5
	c0-0.1,0-0.1,0-0.2c-0.1-2.9,2.1-5.4,5-5.5c0,0,0.1,0,0.1,0c1.7,0.1,3.3,0.9,4.4,2.2c0.1,0.1,0.2,0.1,0.3,0.1l0,0
	c0.1,0,0.2,0,0.3-0.1l1.5-1.6c0.1-0.2,0.1-0.4,0-0.6c-1.6-1.9-4-2.9-6.4-2.9c-4.7,0-8.4,3.8-8.4,8.5s3.8,8.4,8.5,8.4
	c2.5,0,4.9-1.1,6.5-3.1c0.2-0.2,0.2-0.4,0-0.6c0,0,0,0,0,0L148.2,39.2z"/>
<path class="st0" d="M158.1,27.4c-4.6,0-8.4,3.7-8.4,8.3c0,0.1,0,0.1,0,0.2c-0.1,4.6,3.6,8.3,8.2,8.4c0.1,0,0.1,0,0.2,0
	c4.6,0,8.4-3.8,8.4-8.4S162.7,27.4,158.1,27.4 M163.3,35.8c0.1,2.9-2.1,5.3-5,5.5c-0.1,0-0.2,0-0.2,0c-3,0-5.3-2.5-5.3-5.4
	c0-0.1,0-0.1,0-0.2c-0.1-2.9,2.1-5.4,5-5.5c0.1,0,0.1,0,0.2,0c3,0.1,5.4,2.5,5.3,5.5C163.3,35.8,163.3,35.8,163.3,35.8"/>
<path class="st0" d="M176.1,27.4c-1.9-0.1-3.6,0.7-4.9,2.1v-1.4c0-0.2-0.2-0.4-0.4-0.4h-2.3c-0.2,0-0.4,0.2-0.4,0.4v15.3
	c0,0.2,0.2,0.4,0.4,0.4h2.3c0.2,0,0.4-0.2,0.4-0.4v-8.8c-0.2-2.3,1.6-4.2,3.8-4.4c0.1,0,0.3,0,0.4,0c2.4,0,3.8,1.5,3.8,4.2v9
	c0,0.2,0.2,0.4,0.4,0.4h2.3c0.2,0,0.4-0.2,0.4-0.4v-9.5C182.4,29.9,179.9,27.4,176.1,27.4"/>
</svg>
