<?xml version="1.0" encoding="utf-8"?>
<!-- Generator: Adobe Illustrator 27.3.1, SVG Export Plug-In . SVG Version: 6.00 Build 0)  -->
<svg version="1.1" id="Layer_1" xmlns="http://www.w3.org/2000/svg" xmlns:xlink="http://www.w3.org/1999/xlink" x="0px" y="0px"
	 viewBox="0 0 216 76.3" style="enable-background:new 0 0 216 76.3;" xml:space="preserve">
<style type="text/css">
	.st0{fill:#FFFFFF;}
</style>
<path class="st0" d="M124.5,41c0,0-0.8-0.6-0.8-2.6V19.9h3.3v15.6c0,1.8-0.2,4.2,1.1,5.5L124.5,41z"/>
<path class="st0" d="M118.5,41c0,0-0.8-0.6-0.8-2.6V19.9h3.3v15.6c0,1.8-0.3,4.2,1.1,5.5L118.5,41z"/>
<path class="st0" d="M81.8,34.3c-0.4,0-0.8,0.1-1.2,0.2c-0.4,0.1-0.7,0.3-1,0.5c-0.3,0.2-0.5,0.5-0.7,0.8c-0.2,0.4-0.3,0.8-0.3,1.2
	c0,0.3,0.1,0.6,0.2,0.9c0.1,0.2,0.3,0.4,0.5,0.6c0.2,0.2,0.5,0.3,0.8,0.3c0.3,0.1,0.6,0.1,0.9,0.1c0.5,0,1-0.1,1.5-0.2
	c0.5-0.1,1-0.4,1.3-0.7v-3.4c-0.3-0.1-0.7-0.1-1.1-0.1L81.8,34.3 M84.3,40.6c-0.3,0.2-0.5,0.3-0.8,0.5c-0.6,0.2-1.3,0.4-1.9,0.5
	c-0.3,0-0.7,0-0.9,0c-0.7,0-1.3-0.1-2-0.3c-0.6-0.2-1.1-0.4-1.6-0.8c-0.5-0.4-0.9-0.8-1.2-1.3c-0.3-0.6-0.5-1.3-0.4-1.9
	c0-0.8,0.2-1.6,0.5-2.4c0.3-0.7,0.8-1.3,1.4-1.7c0.6-0.5,1.3-0.8,2-1.1c0.8-0.2,1.6-0.4,2.4-0.4c0.4,0,0.8,0,1.1,0s0.8,0.1,1.2,0.1
	v-0.5c0-0.4,0-0.8-0.1-1.1c-0.1-0.3-0.2-0.5-0.4-0.7c-0.2-0.2-0.5-0.3-0.8-0.4c-0.4-0.1-0.8-0.1-1.1-0.1c-0.8,0-1.5,0-2.3,0.1
	c-0.9,0.2-1.7,0.5-2.4,1v-2.6c0.8-0.5,1.7-0.9,2.6-1c0.9-0.2,1.7-0.2,2.6-0.2c0.7,0,1.4,0.1,2,0.3c0.6,0.2,1.2,0.5,1.6,0.9
	c0.5,0.4,0.9,0.9,1.1,1.4c0.3,0.6,0.4,1.3,0.4,2c0,1.1,0,2.2,0,3.4s0,2.2,0,3.4c0,0.6,0.1,1.2,0.2,1.8c0.1,0.6,0.3,1.2,0.7,1.7h-3.4
	L84.3,40.6z"/>
<path class="st0" d="M135.3,34.3c-0.4,0-0.8,0.1-1.2,0.2c-0.4,0.1-0.7,0.3-1,0.5c-0.3,0.2-0.5,0.5-0.7,0.8c-0.2,0.4-0.3,0.8-0.3,1.2
	c0,0.3,0.1,0.6,0.2,0.9c0.1,0.2,0.3,0.4,0.5,0.6c0.2,0.2,0.5,0.3,0.8,0.3c0.3,0.1,0.6,0.1,0.9,0.1c0.5,0,1-0.1,1.5-0.2
	c0.5-0.1,1-0.4,1.4-0.7v-3.4c-0.4,0-0.7-0.1-1.1-0.1L135.3,34.3 M137.7,40.5c-0.3,0.2-0.5,0.3-0.8,0.5c-0.3,0.1-0.6,0.2-0.9,0.3
	c-0.3,0.1-0.7,0.1-1,0.2c-0.3,0-0.6,0-0.9,0c-0.7,0-1.3-0.1-2-0.3c-0.6-0.1-1.2-0.4-1.7-0.8c-0.5-0.4-0.9-0.8-1.2-1.3
	c-0.3-0.6-0.5-1.3-0.4-1.9c0-0.8,0.2-1.6,0.5-2.4c0.3-0.7,0.8-1.3,1.4-1.8c0.6-0.5,1.3-0.8,2-1.1c0.8-0.2,1.6-0.4,2.4-0.4
	c0.4,0,0.8,0,1.1,0s0.8,0.1,1.1,0.1v-0.5c0-0.4,0-0.8-0.1-1.1c-0.1-0.3-0.2-0.5-0.4-0.7c-0.2-0.1-0.4-0.2-0.7-0.3
	c-0.4-0.1-0.8-0.1-1.1-0.1c-0.8,0-1.5,0-2.3,0.1c-0.8,0.2-1.7,0.5-2.4,1v-2.6c0.8-0.5,1.7-0.9,2.6-1c0.8-0.1,1.7-0.2,2.6-0.2
	c0.7,0,1.4,0.1,2,0.3c0.6,0.2,1.1,0.5,1.6,0.9c0.5,0.4,0.9,0.9,1.1,1.4c0.3,0.6,0.4,1.3,0.4,2c0,1.1,0,2.2,0,3.4s0,2.2,0,3.4
	c0,0.6,0.1,1.2,0.2,1.8c0.1,0.6,0.3,1.2,0.5,1.7h-3L137.7,40.5z"/>
<path class="st0" d="M69.5,19.9c-3,4-5.1,8.6-6.2,13.4c-1-4.9-3-9.4-5.9-13.4h-4.2V41h3.5V24.8c2.3,4.1,3.9,8.4,4.8,13h3.7
	c1-4.6,2.7-8.9,5-13V41h3.5V19.9H69.5z"/>
<path class="st0" d="M95.4,28.9c1.5-0.1,2.8,1,2.9,2.5c0,0.1,0,0.2,0,0.4c0,0.8-0.3,1.6-0.8,2.1c-0.6,0.5-1.3,0.7-2.1,0.7
	c-1.5,0.2-2.8-0.9-3-2.3c0-0.1,0-0.3,0-0.4c0-1.5,1.2-2.8,2.7-2.9C95.2,28.8,95.3,28.9,95.4,28.9 M101.6,40.5
	c-0.8-0.6-1.7-1-2.7-1.2l0,0c-1.4-0.4-4.6-1.2-5.2-1.3c0.3-0.3,0.6-0.7,0.9-1l0,0c0.4,0,0.7,0.1,1.1,0.1c3.5,0,5.9-2.2,5.9-5.2
	c0-0.9-0.2-1.7-0.7-2.5l1.8-0.3v-3c-2.1,0.7-4.1,0.5-6.8,0.3c-1.2-0.1-4.6,0-6.1,2.9c-0.4,0.8-0.6,1.7-0.6,2.7
	c-0.1,1.8,0.9,3.5,2.5,4.4l0,0c-1,1.2-1.8,2.4-2.6,3.7l6.6,1.7c1.8,0.5,4.1,1,4.1,2.5c0,1-0.9,2.4-3.5,2.4c-2.9,0-3.4-1.5-3.4-2.3
	c0-0.5,0.2-1.1,0.6-1.4L90,42c-0.4,0.8-0.5,1.7-0.5,2.6c0,1.3,0.7,2.6,1.7,3.4c1.4,1,3.1,1.4,4.8,1.3c4.8,0,7-2.8,7-5.4
	C103.1,42.6,102.6,41.3,101.6,40.5"/>
<path class="st0" d="M151.4,31.9c0-2.7-1-3.3-3-3c-0.8,0.1-1.5,0.4-2.2,0.8V41H143V29.5c0-1.1-0.2-2.2-0.8-3.2h3.3l0.4,0.7
	c1.3-0.5,2.7-0.8,4.1-0.8c3.3,0,4.8,2,4.8,6V41h-3.2L151.4,31.9z"/>
<path class="st0" d="M109.7,28.9c1.8,0,2.8,1.2,2.8,3.7v0.1h-5.7C106.8,30.2,107.9,28.9,109.7,28.9 M115.7,35.3
	c0.1-0.6,0.1-1.1,0.1-1.7c0-5-2.2-7.3-6.1-7.3s-6.4,2.8-6.4,7.4c0,5,2.6,7.9,7.3,7.9c1.5,0,3.1-0.4,4.5-1.1v-2.7
	c-1.2,0.6-2.4,0.9-3.7,0.9c-2,0-4.1-0.3-4.5-3.3H115.7z"/>
<path class="st0" d="M106.2,56.3c-0.7,0-1-0.3-1-1v-9.8c-0.1-0.5,0.3-0.9,0.8-1c0.1,0,0.1,0,0.2,0h0.8v5h3.8v-4
	c-0.1-0.5,0.3-0.9,0.8-1c0.1,0,0.1,0,0.2,0h0.9v11.8h-0.9c-0.5,0.1-0.9-0.3-1-0.8c0-0.1,0-0.2,0-0.2v-4H107v5H106.2z"/>
<path class="st0" d="M117.1,53.6c0,0.2,0.1,0.4,0.2,0.6c0.1,0.1,0.3,0.2,0.5,0.2h3.1c0.5-0.1,0.9,0.3,1,0.7c0,0.1,0,0.2,0,0.3v0.9
	h-4.1c-0.6,0-1.2-0.2-1.7-0.6c-0.6-0.5-0.9-1.3-0.9-2.1v-6.5c-0.1-1.4,1-2.6,2.4-2.7c0.1,0,0.1,0,0.2,0h4.1v0.9
	c0.1,0.5-0.3,0.9-0.8,1c-0.1,0-0.2,0-0.2,0h-3.1c-0.2,0-0.3,0-0.5,0.2c-0.2,0.1-0.3,0.4-0.2,0.6v2.2h4.8v0.9c0.1,0.5-0.3,0.9-0.8,1
	c-0.1,0-0.2,0-0.2,0h-3.8L117.1,53.6z"/>
<path class="st0" d="M129.2,45.4l3.1,10.9h-1.2c-0.2,0-0.5-0.1-0.6-0.2c-0.2-0.1-0.3-0.3-0.4-0.5l-0.6-2.3h-3.7l-0.8,3h-1.1
	c-0.3,0-0.5-0.1-0.6-0.3c-0.1-0.2-0.1-0.4,0-0.6l2.9-10c0.2-0.6,0.7-0.9,1.5-0.9c0.3,0,0.7,0,1,0.2C128.9,44.7,129.2,45,129.2,45.4
	 M129,51.3l-1.3-4.5l-1.3,4.5H129z"/>
<path class="st0" d="M135.6,53.9c0,0.3,0.2,0.5,0.5,0.5h2.4c0.7,0,1,0.3,1,1v0.9H136c-0.6,0-1.3-0.2-1.8-0.6
	c-0.4-0.5-0.6-1.1-0.6-1.7v-8.6c-0.1-0.5,0.3-0.9,0.8-1c0.1,0,0.1,0,0.2,0h0.9L135.6,53.9z"/>
<path class="st0" d="M138.8,45.5c-0.1-0.5,0.3-0.9,0.8-1c0.1,0,0.2,0,0.2,0h5.7v0.9c0.1,0.5-0.3,0.9-0.8,1c-0.1,0-0.1,0-0.2,0h-1.4
	v9.9h-0.9c-0.5,0.1-0.9-0.3-1-0.8c0-0.1,0-0.2,0-0.2v-8.9h-2.4L138.8,45.5z"/>
<path class="st0" d="M148.1,56.3c-0.7,0-1-0.3-1-1v-9.8c-0.1-0.5,0.3-0.9,0.8-1c0.1,0,0.1,0,0.2,0h0.9v5h3.8v-4
	c-0.1-0.5,0.3-0.9,0.8-1c0.1,0,0.1,0,0.2,0h0.9v11.8h-0.9c-0.5,0.1-0.9-0.3-1-0.8c0-0.1,0-0.2,0-0.2v-4H149v5H148.1z"/>
<path class="st0" d="M156.6,55.3h0.4c0,0.1,0.1,0.3,0.1,0.4c0.1,0.1,0.2,0.2,0.3,0.2c0.3,0.1,0.6,0.1,0.9,0c0.1,0,0.2-0.1,0.3-0.2
	c0.1-0.1,0.1-0.2,0.1-0.3c0-0.1,0-0.2-0.1-0.3c-0.1-0.1-0.2-0.2-0.3-0.2c-0.2-0.1-0.4-0.1-0.6-0.2c-0.2,0-0.4-0.1-0.6-0.2
	c-0.1-0.1-0.3-0.2-0.3-0.3c-0.1-0.1-0.1-0.3-0.1-0.4c0-0.2,0-0.3,0.1-0.5c0.1-0.1,0.2-0.3,0.4-0.3c0.2-0.1,0.4-0.1,0.6-0.1
	c0.2,0,0.4,0,0.6,0.1c0.2,0.1,0.3,0.2,0.4,0.3c0.1,0.2,0.2,0.3,0.2,0.5h-0.4c0-0.2-0.1-0.3-0.2-0.5c-0.2-0.1-0.4-0.2-0.6-0.2
	c-0.2,0-0.4,0-0.6,0.1c-0.1,0.1-0.2,0.2-0.2,0.3c0,0.1,0,0.2,0.1,0.3c0.2,0.1,0.4,0.2,0.6,0.2c0.2,0.1,0.5,0.1,0.7,0.2
	c0.2,0.1,0.3,0.2,0.4,0.4c0.1,0.1,0.1,0.3,0.1,0.5c0,0.2-0.1,0.3-0.1,0.5c-0.1,0.2-0.3,0.3-0.4,0.3c-0.2,0.1-0.4,0.1-0.6,0.1
	c-0.2,0-0.5,0-0.7-0.1c-0.2-0.1-0.4-0.2-0.5-0.4C156.6,55.7,156.6,55.5,156.6,55.3"/>
<path class="st0" d="M159.7,56.3v-3.2h0.6l0.8,2.3c0.1,0.2,0.1,0.4,0.1,0.5c0-0.1,0.1-0.3,0.2-0.5l0.8-2.2h0.6v3.2h-0.4v-2.7
	l-0.9,2.7h-0.4l-0.9-2.7v2.7L159.7,56.3z"/>
</svg>
