<?xml version="1.0" encoding="utf-8"?>
<!-- Generator: Adobe Illustrator 27.3.1, SVG Export Plug-In . SVG Version: 6.00 Build 0)  -->
<svg version="1.1" id="Layer_1" xmlns="http://www.w3.org/2000/svg" xmlns:xlink="http://www.w3.org/1999/xlink" x="0px" y="0px"
	 viewBox="0 0 216 76.3" style="enable-background:new 0 0 216 76.3;" xml:space="preserve">
<style type="text/css">
	.st0{fill:#FFFFFF;}
</style>
<path class="st0" d="M43.6,57.2c1-1.2,2.8-1.3,4-0.3c1.2,1,1.3,2.8,0.3,4c-1,1.2-2.8,1.3-4,0.3C42.8,60.3,42.6,58.5,43.6,57.2
	C43.6,57.3,43.6,57.3,43.6,57.2"/>
<path class="st0" d="M54.3,43.7c0.8-1.1,2.3-1.4,3.5-0.7l1.6,1.3c1,1,1,2.5,0,3.5l-7.1,8.5c-0.8,1.1-2.3,1.4-3.5,0.6l-1.6-1.3
	c-1-1-1-2.5,0-3.5L54.3,43.7z"/>
<path class="st0" d="M39.2,51.2c1.6-0.6,2.3-2.3,1.8-3.9c-0.6-1.6-2.3-2.3-3.9-1.8c-1.5,0.6-2.3,2.3-1.8,3.8
	C35.9,51,37.6,51.8,39.2,51.2C39.2,51.3,39.2,51.2,39.2,51.2"/>
<path class="st0" d="M56.8,45.5c1.4-0.4,2.3-1.8,1.9-3.2l-0.8-2.1c-0.6-1.3-2.2-1.9-3.5-1.3L43.2,43c-1.4,0.4-2.3,1.8-1.9,3.2
	l0.8,2.1c0.6,1.3,2.2,1.9,3.5,1.3L56.8,45.5z"/>
<path class="st0" d="M37.3,37.6c1.7,0.6,3.6-0.3,4.2-2c0.6-1.7-0.3-3.6-2-4.2c-1.7-0.6-3.6,0.3-4.2,2C34.7,35.1,35.6,37,37.3,37.6
	C37.3,37.6,37.3,37.6,37.3,37.6"/>
<path class="st0" d="M56,45.1c1.4,0.7,3.2,0.1,3.9-1.4l0.8-2.3c0.4-1.5-0.5-3.1-2.1-3.5l-12.2-4.4c-1.4-0.7-3.2-0.1-3.9,1.4
	l-0.8,2.3c-0.4,1.5,0.5,3.1,2.1,3.5L56,45.1z"/>
<path class="st0" d="M42.9,25.4c1.1,1.6,3.4,2,5.1,0.9c1.6-1.1,2-3.4,0.9-5.1s-3.4-2-5.1-0.9c0,0,0,0,0,0
	C42.2,21.5,41.7,23.8,42.9,25.4C42.9,25.4,42.9,25.4,42.9,25.4"/>
<path class="st0" d="M55,44.1c1.1,1.6,3.1,2.1,4.4,1.2l2.2-1.5c1.3-0.9,1.5-2.9,0.4-4.5l-8.2-11.7c-0.9-1.5-2.8-2.1-4.4-1.2
	l-2.2,1.6c-1.3,0.9-1.5,2.9-0.4,4.5L55,44.1z"/>
<polygon class="st0" points="85.5,28 88.9,28 88.9,44.3 86.5,44.3 86.5,30.8 86.4,30.8 80.1,44.3 77.9,44.3 71.6,31 71.6,31 
	71.6,44.3 69.1,44.3 69.1,28 72.5,28 79,41.5 "/>
<path class="st0" d="M104.7,44.3h-2.3v-1.8l0,0c-1.1,1.5-2.8,2.3-4.7,2.2c-2.9,0-5-1.2-5-4.2v-8.1H95V40c0,1.8,1.1,2.8,3.5,2.8
	c2.1,0,3.9-1.2,3.9-3.6v-6.9h2.3V44.3z"/>
<rect x="108.2" y="27.9" class="st0" width="2.3" height="16.4"/>
<path class="st0" d="M115,28.7h2.3v3.7h3.4v1.8h-3.4v7.4c0,1,0.7,1.3,1.8,1.3c0.5,0,1.1-0.1,1.6-0.2v1.9c-0.8,0.1-1.7,0.2-2.6,0.2
	c-2.2,0-3.2-1.1-3.2-2.8v-7.8h-2.5v-1.8h2.5V28.7z"/>
<path class="st0" d="M123.1,27.9h2.3v2.5h-2.3V27.9z M123.1,32.3h2.3v12h-2.3V32.3z"/>
<path class="st0" d="M128.8,28h8.5c2.3,0,5,0.8,5,4.5c0,2.7-1.6,4.6-5.1,4.6h-7.3v7.2h-1.1L128.8,28z M129.9,36.2h7.2
	c2,0,4.1-0.8,4.1-3.7c0-3.6-2.9-3.6-4.3-3.6h-7V36.2z"/>
<rect x="144.7" y="28" class="st0" width="1.1" height="16.3"/>
<path class="st0" d="M148.9,36.2c0.4-2.9,1.9-4,5.4-4s5.4,0.8,5.4,3.4v6.5c0,0.9,0,1.4,0.8,1.4c0.3,0,0.7-0.1,1-0.2v0.9
	c-0.4,0.1-0.8,0.2-1.3,0.2c-1.4,0-1.4-1-1.4-2.6l0,0c-1.3,2.4-4,2.7-5.6,2.7c-1,0-4.8,0-4.8-3.6c0-2.4,2-3.2,4.4-3.3l4.1-0.3
	c1.2-0.1,1.8-0.2,1.8-1.7s-0.9-2.7-4.3-2.7c-3.1,0-4,1-4.4,3.1L148.9,36.2z M158.7,37.8L158.7,37.8c-0.6,0.4-1.2,0.6-1.9,0.6l-4,0.3
	c-2,0.1-3.4,0.7-3.4,2.4c0,2.4,2.4,2.7,3.8,2.7c2.3,0,5.4-1,5.4-3.8L158.7,37.8z"/>
<path class="st0" d="M163.3,32.6h1.1v2.3l0,0c1-1.8,2.9-2.8,4.9-2.7c5.4,0,5.4,3.4,5.4,4.8v7.2h-1.1v-7.2c0-2.4-0.9-4-4.3-4
	s-4.9,2.2-4.9,4.3v6.8h-1.1L163.3,32.6z"/>
<path class="st0" d="M179.2,41.4c0.9,0,1.7,0.7,1.7,1.7c0,0.9-0.7,1.7-1.7,1.7c-0.9,0-1.7-0.7-1.7-1.7c0,0,0,0,0,0
	C177.6,42.1,178.3,41.4,179.2,41.4C179.2,41.3,179.2,41.3,179.2,41.4L179.2,41.4z M179.2,41.6c-0.8,0-1.4,0.6-1.4,1.4
	c0,0.8,0.6,1.4,1.4,1.4c0.8,0,1.4-0.6,1.4-1.4C180.6,42.2,180,41.6,179.2,41.6z M178.9,44h-0.3v-1.9c0.2,0,0.4,0,0.5,0
	c0.2,0,0.4,0,0.6,0.1c0.1,0.1,0.2,0.2,0.2,0.4c0,0.2-0.1,0.4-0.4,0.5l0,0c0.2,0,0.3,0.2,0.3,0.5c0,0.2,0.1,0.3,0.2,0.4h-0.3
	c-0.1-0.1-0.1-0.3-0.1-0.5c0-0.2-0.2-0.3-0.4-0.3c0,0,0,0,0,0H179L178.9,44z M178.9,43h0.2c0.2,0,0.4-0.1,0.4-0.3s-0.1-0.3-0.4-0.3
	h-0.2V43z"/>
<path class="st0" d="M55.2,18.4c0,2.2,1.8,4,4,4s4-1.8,4-4s-1.8-4-4-4S55.2,16.2,55.2,18.4"/>
<path class="st0" d="M54.3,43.1c0,2.1,1.4,3.9,3.2,3.9h3c1.8,0,3.2-1.7,3.2-3.9V27.3c0-2.1-1.4-3.9-3.2-3.9h-3
	c-1.8,0-3.2,1.7-3.2,3.9V43.1z"/>
</svg>
