<?xml version="1.0" encoding="utf-8"?>
<!-- Generator: Adobe Illustrator 27.3.1, SVG Export Plug-In . SVG Version: 6.00 Build 0)  -->
<svg version="1.1" id="Layer_1" xmlns="http://www.w3.org/2000/svg" xmlns:xlink="http://www.w3.org/1999/xlink" x="0px" y="0px"
	 viewBox="0 0 216 76.3" style="enable-background:new 0 0 216 76.3;" xml:space="preserve">
<style type="text/css">
	.st0{fill:#FFFFFF;stroke:#FFFFFF;stroke-width:0.4;stroke-miterlimit:10;}
</style>
<path class="st0" d="M81.1,58.8c-8.7-11.5-19-20.8-32.3-26.5c2.4,0.6,4.8,1.1,7.2,1.8c8.7,2.6,16.4,6.8,22.3,13.9l0.2,0.2
	C81.8,52.3,82.1,53.1,81.1,58.8z"/>
<path class="st0" d="M94.5,17.5c-6.9,9.4-11.2,20.4-12.3,32c-1.4-1.7-2.6-3.1-3.7-4.6c-0.2-0.4-0.2-0.9,0-1.4
	c2-9.6,7.2-17.5,14-24.4c0.5-0.5,1.1-1.1,1.7-1.6C94.1,17.5,94.2,17.5,94.5,17.5z"/>
<path class="st0" d="M78,31.8c0,2.6-2.1,4.7-4.7,4.8c-2.6,0-4.7-2.1-4.7-4.7s2.1-4.7,4.7-4.7C75.9,27.2,78,29.2,78,31.8z"/>
<path class="st0" d="M111,33.9c1-2.2,3.2-8.1,3.6-9.3c0.1-0.2,0.1-0.4,0.2-0.6c0-0.2-0.1-0.3-0.2-0.4c-0.2-0.1-0.4-0.1-0.6-0.1
	c-0.1,0-0.2,0-0.2-0.1s0.1-0.1,0.4-0.1c0.7,0,1.4,0,1.7,0s0.8,0,1.3,0c0.2,0,0.3,0,0.3,0.1s-0.1,0.1-0.2,0.1c-0.3,0-0.6,0.1-0.8,0.2
	c-0.2,0.1-0.5,0.4-0.9,1.6c-0.2,0.5-1,2.5-1.9,4.6c-1,2.5-1.8,4.3-2.2,5.1c-0.5,1-0.5,1.3-0.7,1.3s-0.3-0.2-0.6-1l-4.1-10.4
	c-0.4-0.9-0.6-1.1-1.2-1.3c-0.2-0.1-0.4-0.1-0.6-0.1c-0.1,0-0.1,0-0.1-0.1s0.2-0.1,0.4-0.1c0.8,0,1.8,0,2,0s0.9,0,1.6,0
	c0.3,0,0.4,0,0.4,0.1s0,0.1-0.2,0.1c-0.2,0-0.4,0-0.6,0.1c-0.1,0-0.2,0.2-0.2,0.3c0.1,0.5,0.2,0.9,0.4,1.4L111,33.9z"/>
<path class="st0" d="M120.3,25.4c0.2-0.5,0.3-0.6,0.4-0.6s0.2,0.2,0.3,0.5c0.3,0.6,2.6,6.5,3.6,8.7c0.5,1.3,1,1.5,1.3,1.6
	c0.2,0.1,0.4,0.1,0.6,0.1c0.1,0,0.2,0,0.2,0.1s-0.2,0.1-0.3,0.1s-1.3,0-2.3,0c-0.3,0-0.5,0-0.5-0.1s0-0.1,0.1-0.1
	c0.1-0.1,0.2-0.2,0.2-0.3c0,0,0,0,0,0l-1.3-3.4c0-0.1,0-0.1-0.1-0.1h-3.4c-0.1,0-0.1,0-0.2,0.1l-0.8,2.3c-0.1,0.3-0.2,0.7-0.2,1
	c0,0.3,0.3,0.4,0.5,0.4h0.1c0.1,0,0.2,0,0.2,0.1s-0.1,0.1-0.2,0.1c-0.4,0-1.2,0-1.3,0s-0.9,0-1.5,0c-0.2,0-0.3,0-0.3-0.1
	c0-0.1,0.1-0.1,0.1-0.1c0,0,0,0,0,0c0.1,0,0.3,0,0.4,0c0.7-0.1,1-0.6,1.2-1.3L120.3,25.4z M122,31.4c0.1,0,0.1,0,0-0.1l-1.5-3.9
	c-0.1-0.2-0.2-0.2-0.2,0l-1.4,3.9c0,0.1,0,0.1,0,0.1H122z"/>
<path class="st0" d="M129.9,31.8c0,2.1,0,3,0.3,3.2s0.8,0.3,2,0.3c0.8,0,1.4,0,1.8-0.4c0.2-0.2,0.3-0.5,0.4-0.8
	c0-0.1,0.1-0.2,0.2-0.2s0.1,0.1,0.1,0.2c0,0.5-0.1,1-0.2,1.4c-0.1,0.3-0.1,0.4-0.9,0.4c-1.1,0-1.9,0-2.6,0h-1.6h-0.6
	c-0.3,0-0.6,0-0.9,0s-0.2,0-0.2-0.1c0-0.1,0.1-0.1,0.1-0.1l0,0c0.2,0,0.3,0,0.4-0.1c0.3-0.1,0.3-0.3,0.4-0.8c0.1-1,0.1-2.1,0.1-3.1
	v-2.6c0-2.2,0-2.6,0-3.1s-0.1-0.7-0.6-0.8c-0.2,0-0.3,0-0.5,0c-0.1,0-0.1-0.1-0.1-0.1c0-0.1,0.1-0.1,0.2-0.1c0.7,0,1.6,0,1.7,0h1.6
	c0.1,0,0.2,0,0.2,0.1s-0.1,0.1-0.1,0.1h-0.5c-0.4,0.1-0.5,0.3-0.6,0.8s0,0.9,0,3.1L129.9,31.8z"/>
<path class="st0" d="M136.8,29.3c0-2.2,0-2.6,0-3.1s-0.1-0.7-0.6-0.8c-0.2,0-0.3,0-0.5,0c-0.1,0-0.1-0.1-0.1-0.1
	c0-0.1,0.1-0.1,0.2-0.1c0.7,0,1.6,0,1.7,0h1.5c0.2,0,0.3,0,0.3,0.1c0,0.1-0.1,0.1-0.1,0.1c-0.1,0-0.2,0-0.4,0
	c-0.4,0.1-0.5,0.3-0.5,0.8s0,0.9,0,3.1v2c0,2.1,0.5,2.9,1.1,3.5c0.6,0.6,1.4,0.8,2.2,0.8c0.9,0,1.7-0.3,2.3-1c0.7-1,1-2.2,0.9-3.5
	v-1.8c0-2.2,0-2.6,0-3.1s-0.1-0.7-0.6-0.8c-0.2,0-0.3,0-0.5,0c-0.1,0-0.1-0.1-0.1-0.1c0-0.1,0.1-0.1,0.2-0.1c0.7,0,1.5,0,1.6,0
	s0.8,0,1.2,0c0.2,0,0.2,0,0.2,0.1c0,0.1-0.1,0.1-0.1,0.1c-0.1,0-0.2,0-0.4,0c-0.4,0.1-0.5,0.3-0.5,0.8s0,0.9,0,3.1v1.5
	c0,1.5-0.2,3.3-1.4,4.3c-0.9,0.7-2,1.1-3.1,1c-1.1,0.1-2.2-0.3-3.1-1c-0.7-0.7-1.3-1.7-1.3-3.8L136.8,29.3z"/>
<path class="st0" d="M149.8,29.3c0-2.2,0-2.6,0-3.1s-0.1-0.7-0.6-0.8c-0.2,0-0.3,0-0.5,0c-0.1,0-0.1-0.1-0.1-0.1
	c0-0.1,0.1-0.1,0.2-0.1c0.7,0,1.6,0,1.7,0s3.2,0,3.5,0c0.2,0,0.5,0,0.7-0.1c0.1,0,0.1-0.1,0.2-0.1c0.1,0,0.1,0.1,0.1,0.1
	c-0.1,0.2-0.1,0.4-0.1,0.7c0,0.1,0,0.8-0.1,0.9s-0.1,0.2-0.1,0.2s-0.1-0.1-0.1-0.2c0-0.2,0-0.3-0.1-0.5c-0.1-0.2-0.3-0.3-1.1-0.4
	c-0.3,0-2,0-2.1,0s-0.1,0-0.1,0.1v3.9c0,0.1,0,0.1,0.1,0.1s2.1,0,2.5,0s0.6,0,0.7-0.2s0.2-0.2,0.2-0.2s0.1,0,0.1,0.1
	s-0.1,0.3-0.1,0.8c0,0.3-0.1,0.8-0.1,0.9s0,0.3-0.1,0.3s-0.1,0-0.1-0.1c0-0.2,0-0.3-0.1-0.5c-0.1-0.2-0.2-0.4-0.8-0.4
	c-0.4,0-2-0.1-2.2-0.1c0,0-0.1,0-0.1,0.1c0,0,0,0,0,0v1.2c0,0.5,0,2.1,0,2.4c0,1,0.3,1.2,1.8,1.2c0.5,0,1,0,1.5-0.2
	c0.4-0.2,0.7-0.6,0.7-1c0-0.2,0.1-0.2,0.1-0.2s0.1,0.1,0.1,0.2c0,0.5-0.1,0.9-0.2,1.4c-0.1,0.4-0.3,0.4-0.8,0.4c-1.1,0-2,0-2.6,0
	s-1,0-1.2,0h-0.6c-0.3,0-0.6,0-0.9,0s-0.2,0-0.2-0.1c0-0.1,0.1-0.1,0.1-0.1c0.2,0,0.3,0,0.4-0.1c0.3,0,0.3-0.3,0.4-0.8
	c0.1-1,0.1-2.1,0.1-3.1L149.8,29.3z"/>
<path class="st0" d="M98.2,38.9c3.8,0,6.6,2.4,6.6,6.3c0.2,3.6-2.7,6.7-6.3,6.9c-0.1,0-0.3,0-0.4,0c-4.6,0-6.5-3.6-6.5-6.6
	c0-3.6,2.9-6.6,6.5-6.6C98.1,38.9,98.1,38.9,98.2,38.9z M98.5,51.5c1.5,0,4.7-0.9,4.7-5.8c0-4-2.5-6.2-5.1-6.2s-4.9,1.8-4.9,5.5
	C93.2,48.9,95.5,51.5,98.5,51.5z"/>
<path class="st0" d="M108.6,45.2c0-2.2,0-2.6,0-3.1s-0.1-0.7-0.6-0.8h-0.5c-0.1,0-0.1-0.1-0.1-0.1c0-0.1,0.1-0.1,0.2-0.1
	c0.7,0,1.6,0,1.7,0c0.3,0,1.4,0,2.1,0c1-0.1,2,0.2,2.8,0.8c0.5,0.4,0.7,1.1,0.7,1.7c0,2-1.6,3.4-3.8,3.4c-0.1,0-0.3,0-0.4,0
	c-0.1,0-0.1-0.1-0.2-0.1c0-0.1,0.1-0.2,0.4-0.2c1.4,0.1,2.6-0.8,2.7-2.2c0,0,0-0.1,0-0.1c0-0.8-0.3-1.6-0.8-2.2
	c-0.5-0.5-1.3-0.8-2-0.7c-0.3,0-0.5,0-0.8,0.1c-0.1,0-0.1,0.1-0.1,0.3v5.8c0,1.4,0,2.5,0.1,3.1c0,0.4,0.1,0.7,0.6,0.8
	c0.2,0,0.4,0.1,0.7,0.1c0.1,0,0.1,0,0.1,0.1c0,0,0,0,0,0c0,0.1-0.1,0.1-0.2,0.1c-0.8,0-1.8,0-1.8,0s-1,0-1.5,0c-0.2,0-0.2,0-0.2-0.1
	c0-0.1,0.1-0.1,0.1-0.1l0,0c0.2,0,0.3,0,0.5-0.1c0.3-0.1,0.3-0.3,0.4-0.8c0.1-1,0.1-2.1,0.1-3.1L108.6,45.2z"/>
<path class="st0" d="M121.7,47.7c0,1.4,0,2.5,0.1,3.1c0,0.4,0.1,0.7,0.6,0.8c0.2,0,0.4,0.1,0.7,0.1c0.1,0,0.1,0,0.1,0.1c0,0,0,0,0,0
	c0,0.1-0.1,0.1-0.2,0.1c-0.8,0-1.8,0-1.8,0s-1.1,0-1.5,0c-0.2,0-0.2,0-0.2-0.1s0-0.1,0.1-0.1c0.1,0,0.3,0,0.4-0.1
	c0.3-0.1,0.4-0.3,0.4-0.8c0.1-0.6,0.1-1.7,0.1-3.1v-6h-2.1c-0.9,0-1.3,0.1-1.5,0.5c-0.1,0.1-0.2,0.3-0.2,0.5c0,0.1-0.1,0.1-0.2,0.1
	c-0.1,0-0.1-0.1-0.1-0.1c0,0,0,0,0,0c0-0.2,0.3-1.4,0.3-1.5s0.1-0.3,0.2-0.3c0.2,0.1,0.4,0.1,0.7,0.2c0.4,0,1,0.1,1.2,0.1h5.6
	c0.4,0,0.7,0,1.1-0.1c0.2,0,0.3-0.1,0.4-0.1s0.1,0.1,0.1,0.2c0,0.4,0,1.5,0,1.6s-0.1,0.2-0.1,0.2s-0.1,0-0.1-0.2v-0.2
	c0-0.4-0.4-0.8-1.8-0.8h-1.8L121.7,47.7z"/>
<path class="st0" d="M130.1,47.7c0,1.4,0,2.5,0.1,3.1c0,0.4,0.1,0.7,0.5,0.8c0.2,0,0.5,0.1,0.7,0.1c0.1,0,0.1,0,0.1,0.1c0,0,0,0,0,0
	c0,0.1-0.1,0.1-0.2,0.1c-0.8,0-1.8,0-1.9,0s-1,0-1.5,0c-0.2,0-0.2,0-0.2-0.1c0-0.1,0.1-0.1,0.1-0.1l0,0c0.2,0,0.3,0,0.5-0.1
	c0.3-0.1,0.3-0.3,0.4-0.8c0.1-0.6,0.1-1.7,0.1-3.1v-2.5c0-2.2,0-2.6,0-3.1s-0.1-0.7-0.5-0.8c-0.1,0-0.3,0-0.4,0
	c-0.1,0-0.1-0.1-0.1-0.1c0-0.1,0.1-0.1,0.2-0.1c0.5,0,1.4,0,1.5,0s1,0,1.5,0c0.2,0,0.2,0,0.2,0.1c0,0.1-0.1,0.1-0.1,0.1
	c-0.1,0-0.2,0-0.4,0c-0.4,0.1-0.5,0.3-0.5,0.8s0,0.9,0,3.1L130.1,47.7z"/>
<path class="st0" d="M139.2,40.8c3.3,0,5.9,2,5.9,5.4c0,3.2-2.5,5.8-5.7,5.8c-0.1,0-0.2,0-0.3,0c-3,0.2-5.6-2.1-5.8-5.2
	c0-0.2,0-0.3,0-0.5c0.1-3.1,2.6-5.6,5.8-5.6C139.2,40.8,139.2,40.8,139.2,40.8z M139.6,51.5c1.3,0,4-0.7,4-4.8
	c0-3.4-2.1-5.2-4.4-5.2s-4.3,1.5-4.3,4.6C134.9,49.4,136.9,51.5,139.6,51.5z"/>
<path class="st0" d="M148.8,49.9c0,1.2,0.2,1.5,0.6,1.6c0.2,0.1,0.5,0.1,0.7,0.1c0.1,0,0.1,0.1,0.1,0.1c0,0.1-0.1,0.1-0.3,0.1
	c-0.8,0-1.4,0-1.6,0s-0.8,0-1.4,0c-0.1,0-0.2,0-0.2-0.1c0-0.1,0-0.1,0.1-0.1c0,0,0,0,0,0c0.2,0,0.4,0,0.6-0.1
	c0.4-0.1,0.4-0.5,0.4-1.8v-8.2c0-0.6,0.1-0.7,0.2-0.7s0.4,0.3,0.6,0.4s2.4,2.5,4.7,4.9c1.5,1.5,3,3.2,3.5,3.7l-0.1-7.2
	c0-0.9-0.1-1.2-0.6-1.3c-0.2,0-0.5-0.1-0.7-0.1c-0.1,0-0.1-0.1-0.1-0.1c0,0,0,0,0,0c0-0.1,0.1-0.1,0.3-0.1c0.7,0,1.4,0,1.5,0
	s0.7,0,1.3,0c0.1,0,0.3,0,0.3,0.1c0,0.1-0.1,0.1-0.2,0.1c-0.1,0-0.2,0-0.4,0c-0.5,0.1-0.5,0.4-0.5,1.2v8.4c0,1,0,1-0.1,1
	s-0.3-0.1-1.1-0.9c-0.1-0.1-2.3-2.2-3.9-3.9c-1.7-1.8-3.4-3.5-3.8-4.1L148.8,49.9z"/>
<path class="st0" d="M161.3,51.7c-0.2-0.1-0.2-0.2-0.2-0.5c0-0.7,0.1-1.3,0.1-1.5s0-0.2,0.1-0.2s0.1,0,0.1,0.2c0,1.1,0.8,1.9,1.8,2
	c0.2,0,0.4,0,0.6-0.1c1.5,0,2.2-0.8,2.2-1.9s-0.6-1.5-1.9-2.5l-0.7-0.5c-1.6-1.2-2.1-2.1-2.1-3.1c0-1.7,1.3-2.7,3.3-2.7
	c0.5,0,1,0.1,1.5,0.2c0.2,0,0.3,0.1,0.5,0.1c0.1,0,0.1,0,0.1,0.1c0,0.5-0.1,1-0.1,1.5c0,0.2,0,0.3-0.1,0.3s-0.1-0.1-0.1-0.2
	c0-0.2-0.1-0.5-0.2-0.7c-0.1-0.2-0.6-0.7-1.9-0.7c-1.1,0-2,0.5-2,1.5s0.5,1.4,1.9,2.4l0.4,0.3c1.8,1.2,2.4,2.2,2.4,3.5
	c0,1-0.5,1.9-1.4,2.4c-0.7,0.4-1.5,0.5-2.4,0.5C162.7,52.1,162,51.9,161.3,51.7z"/>
</svg>
