<svg xmlns="http://www.w3.org/2000/svg" xmlns:xlink="http://www.w3.org/1999/xlink" width="1200" viewBox="0 0 900 449.999984" height="600" preserveAspectRatio="xMidYMid meet"><defs><clipPath id="d35ea9fdad"><path d="M 32.429688 87.511719 L 296.429688 87.511719 L 296.429688 362.757812 L 32.429688 362.757812 Z M 32.429688 87.511719 " clip-rule="nonzero"></path></clipPath><clipPath id="8d32eb15d7"><path d="M 317.835938 87.511719 L 581.835938 87.511719 L 581.835938 362.757812 L 317.835938 362.757812 Z M 317.835938 87.511719 " clip-rule="nonzero"></path></clipPath><clipPath id="cac7e92fbb"><path d="M 603.246094 87.511719 L 867.246094 87.511719 L 867.246094 362.757812 L 603.246094 362.757812 Z M 603.246094 87.511719 " clip-rule="nonzero"></path></clipPath></defs><g clip-path="url(#d35ea9fdad)"><path fill="#c28584" d="M 296.410156 230.261719 C 296.410156 303.207031 237.195312 362.550781 164.421875 362.550781 C 91.648438 362.550781 32.429688 303.207031 32.429688 230.261719 C 32.429688 230.074219 32.464844 229.894531 32.535156 229.722656 C 32.609375 229.550781 32.710938 229.398438 32.84375 229.265625 C 32.972656 229.132812 33.125 229.03125 33.296875 228.960938 C 33.472656 228.886719 33.652344 228.851562 33.835938 228.851562 L 295 228.851562 C 295.1875 228.851562 295.367188 228.886719 295.539062 228.960938 C 295.710938 229.03125 295.863281 229.132812 295.996094 229.265625 C 296.128906 229.398438 296.230469 229.550781 296.300781 229.722656 C 296.371094 229.894531 296.410156 230.074219 296.410156 230.261719 Z M 32.429688 219.976562 C 32.429688 147.035156 91.640625 87.691406 164.414062 87.691406 C 237.191406 87.691406 296.410156 147.035156 296.410156 219.976562 C 296.410156 220.164062 296.371094 220.34375 296.300781 220.519531 C 296.230469 220.691406 296.128906 220.84375 295.996094 220.976562 C 295.863281 221.109375 295.710938 221.210938 295.539062 221.28125 C 295.367188 221.351562 295.1875 221.390625 295 221.390625 L 33.835938 221.390625 C 33.652344 221.390625 33.472656 221.351562 33.296875 221.28125 C 33.125 221.210938 32.972656 221.109375 32.84375 220.976562 C 32.710938 220.84375 32.609375 220.691406 32.535156 220.519531 C 32.464844 220.34375 32.429688 220.164062 32.429688 219.976562 Z M 285.546875 218.566406 L 293.585938 218.566406 C 293.441406 203.574219 290.761719 189.046875 285.546875 174.988281 Z M 261.617188 218.566406 L 282.734375 218.566406 L 282.734375 168.035156 C 277.390625 155.867188 270.355469 144.78125 261.617188 134.777344 Z M 237.691406 218.566406 L 258.804688 218.566406 L 258.804688 131.671875 C 252.421875 124.820312 245.382812 118.726562 237.691406 113.394531 Z M 213.761719 218.566406 L 234.875 218.566406 L 234.875 111.5 C 228.179688 107.117188 221.144531 103.390625 213.761719 100.320312 Z M 189.832031 218.566406 L 210.945312 218.566406 L 210.945312 99.183594 C 204.082031 96.519531 197.046875 94.46875 189.832031 93.023438 Z M 165.902344 218.566406 L 187.015625 218.566406 L 187.015625 92.488281 C 180.03125 91.253906 172.992188 90.605469 165.902344 90.535156 Z M 35.246094 218.566406 L 163.007812 218.566406 L 163.007812 90.511719 C 92.902344 91.289062 36.003906 148.296875 35.246094 218.566406 Z M 35.246094 218.566406 " fill-opacity="1" fill-rule="nonzero"></path></g><g clip-path="url(#8d32eb15d7)"><path fill="#b76f54" d="M 581.816406 230.261719 C 581.816406 303.207031 522.605469 362.550781 449.832031 362.550781 C 377.054688 362.550781 317.835938 303.207031 317.835938 230.261719 C 317.835938 230.074219 317.875 229.894531 317.945312 229.722656 C 318.015625 229.550781 318.117188 229.398438 318.25 229.265625 C 318.382812 229.132812 318.535156 229.03125 318.707031 228.960938 C 318.878906 228.886719 319.058594 228.851562 319.246094 228.851562 L 580.410156 228.851562 C 580.59375 228.851562 580.773438 228.886719 580.949219 228.960938 C 581.121094 229.03125 581.273438 229.132812 581.402344 229.265625 C 581.535156 229.398438 581.636719 229.550781 581.710938 229.722656 C 581.78125 229.894531 581.816406 230.074219 581.816406 230.261719 Z M 317.835938 219.976562 C 317.835938 147.035156 377.050781 87.691406 449.824219 87.691406 C 522.597656 87.691406 581.816406 147.035156 581.816406 219.976562 C 581.816406 220.164062 581.78125 220.34375 581.710938 220.519531 C 581.636719 220.691406 581.535156 220.84375 581.402344 220.976562 C 581.273438 221.109375 581.121094 221.210938 580.949219 221.28125 C 580.773438 221.351562 580.59375 221.390625 580.410156 221.390625 L 319.246094 221.390625 C 319.058594 221.390625 318.878906 221.351562 318.707031 221.28125 C 318.535156 221.210938 318.382812 221.109375 318.25 220.976562 C 318.117188 220.84375 318.015625 220.691406 317.945312 220.519531 C 317.875 220.34375 317.835938 220.164062 317.835938 219.976562 Z M 570.957031 218.566406 L 578.992188 218.566406 C 578.847656 203.574219 576.167969 189.046875 570.957031 174.988281 Z M 547.027344 218.566406 L 568.140625 218.566406 L 568.140625 168.035156 C 562.800781 155.867188 555.761719 144.78125 547.027344 134.777344 Z M 523.097656 218.566406 L 544.210938 218.566406 L 544.210938 131.671875 C 537.828125 124.820312 530.789062 118.726562 523.097656 113.394531 Z M 499.167969 218.566406 L 520.28125 218.566406 L 520.28125 111.5 C 513.589844 107.117188 506.550781 103.390625 499.167969 100.320312 Z M 475.238281 218.566406 L 496.351562 218.566406 L 496.351562 99.183594 C 489.492188 96.519531 482.453125 94.46875 475.238281 93.023438 Z M 451.308594 218.566406 L 472.421875 218.566406 L 472.421875 92.488281 C 465.4375 91.253906 458.398438 90.605469 451.308594 90.535156 Z M 320.652344 218.566406 L 448.414062 218.566406 L 448.414062 90.511719 C 378.308594 91.289062 321.414062 148.296875 320.652344 218.566406 Z M 320.652344 218.566406 " fill-opacity="1" fill-rule="nonzero"></path></g><g clip-path="url(#cac7e92fbb)"><path fill="#d39c79" d="M 867.222656 230.261719 C 867.222656 303.207031 808.011719 362.550781 735.238281 362.550781 C 662.464844 362.550781 603.246094 303.207031 603.246094 230.261719 C 603.246094 230.074219 603.28125 229.894531 603.351562 229.722656 C 603.425781 229.550781 603.527344 229.398438 603.65625 229.265625 C 603.789062 229.132812 603.941406 229.03125 604.113281 228.960938 C 604.285156 228.886719 604.464844 228.851562 604.652344 228.851562 L 865.816406 228.851562 C 866.003906 228.851562 866.183594 228.886719 866.355469 228.960938 C 866.527344 229.03125 866.679688 229.132812 866.8125 229.265625 C 866.945312 229.398438 867.046875 229.550781 867.117188 229.722656 C 867.1875 229.894531 867.222656 230.074219 867.222656 230.261719 Z M 603.246094 219.976562 C 603.246094 147.035156 662.457031 87.691406 735.230469 87.691406 C 808.003906 87.691406 867.222656 147.035156 867.222656 219.976562 C 867.222656 220.164062 867.1875 220.34375 867.117188 220.519531 C 867.046875 220.691406 866.945312 220.84375 866.8125 220.976562 C 866.679688 221.109375 866.527344 221.210938 866.355469 221.28125 C 866.183594 221.351562 866.003906 221.390625 865.816406 221.390625 L 604.652344 221.390625 C 604.464844 221.390625 604.285156 221.351562 604.113281 221.28125 C 603.941406 221.210938 603.789062 221.109375 603.65625 220.976562 C 603.527344 220.84375 603.425781 220.691406 603.351562 220.519531 C 603.28125 220.34375 603.246094 220.164062 603.246094 219.976562 Z M 856.363281 218.566406 L 864.402344 218.566406 C 864.257812 203.574219 861.578125 189.046875 856.363281 174.988281 Z M 832.433594 218.566406 L 853.550781 218.566406 L 853.550781 168.035156 C 848.207031 155.867188 841.171875 144.78125 832.433594 134.777344 Z M 808.503906 218.566406 L 829.621094 218.566406 L 829.621094 131.671875 C 823.238281 124.820312 816.199219 118.726562 808.503906 113.394531 Z M 784.574219 218.566406 L 805.691406 218.566406 L 805.691406 111.5 C 798.996094 107.117188 791.957031 103.390625 784.574219 100.320312 Z M 760.644531 218.566406 L 781.761719 218.566406 L 781.761719 99.183594 C 774.898438 96.519531 767.859375 94.46875 760.644531 93.023438 Z M 736.714844 218.566406 L 757.832031 218.566406 L 757.832031 92.488281 C 750.847656 91.253906 743.808594 90.605469 736.714844 90.535156 Z M 606.0625 218.566406 L 733.824219 218.566406 L 733.824219 90.511719 C 663.71875 91.289062 606.820312 148.296875 606.0625 218.566406 Z M 606.0625 218.566406 " fill-opacity="1" fill-rule="nonzero"></path></g></svg>